#!OML:ASF C:\Vicon Data\Big\jianyuan-13\jianyuan\Session 1\Capture.male.ASF
:FULLY-SPECIFIED
:DEGREES
28
root -8.186282 17.492814 -21.138123 7.207630 10.986412 0.235692
lowerback -14.226496 -1.761942 -3.535506 
upperback 1.132108 -1.801175 0.318449 
thorax 9.355140 -1.067984 1.943202 
lowerneck -7.915656 -2.380404 3.756225 
upperneck 5.390827 -3.427452 -2.331763 
head 3.022422 -1.712007 -1.593317 
rclavicle 0.000000 0.000000 
rhumerus -42.533341 -22.522150 -75.143299 
rradius 34.504566 
rwrist 28.455568 
rhand -19.446281 -18.879405 
rfingers 0.000000 
rthumb 6.874394 -48.747771 
lclavicle 0.000000 0.000000 
lhumerus -41.978932 40.681425 65.990510 
lradius 24.434711 
lwrist -61.338753 
lhand -21.945094 0.651729 
lfingers 0.000000 
lthumb 4.461800 30.584676 
rfemur -31.203419 0.869721 22.278827 
rtibia 28.807761 
rfoot -8.581328 -5.360809 
rtoes -27.607500 
lfemur -4.713079 5.343301 -17.197321 
ltibia 44.105734 
lfoot 3.890931 -6.113013 
ltoes -42.531140 
29
root -8.203228 17.499430 -21.061587 7.121619 11.057597 0.144218
lowerback -14.051797 -1.692861 -3.291740 
upperback 1.184721 -1.754155 0.325137 
thorax 9.301266 -1.031952 1.826325 
lowerneck -7.963312 -2.384605 3.729701 
upperneck 5.447042 -3.431008 -2.342651 
head 3.050753 -1.714480 -1.594693 
rclavicle 0.000000 0.000000 
rhumerus -42.174718 -22.312854 -75.388028 
rradius 34.392082 
rwrist 28.547680 
rhand -19.448552 -18.866004 
rfingers 0.000000 
rthumb 6.872183 -48.734524 
lclavicle 0.000000 0.000000 
lhumerus -41.502891 40.357421 66.426826 
lradius 24.446442 
lwrist -61.191003 
lhand -22.226586 0.505027 
lfingers 0.000000 
lthumb 4.189982 30.443593 
rfemur -30.866753 0.722079 22.516901 
rtibia 28.894655 
rfoot -8.998677 -5.080546 
rtoes -27.721469 
lfemur -6.414205 6.099813 -16.838975 
ltibia 47.184836 
lfoot 4.988983 -5.654313 
ltoes -42.551341 
30
root -8.215740 17.507072 -20.979556 6.973495 11.113495 -0.116622
lowerback -13.869311 -1.612784 -2.935797 
upperback 1.195262 -1.721609 0.437061 
thorax 9.197664 -0.999643 1.756539 
lowerneck -7.826922 -2.412926 3.580161 
upperneck 5.496022 -3.451190 -2.301274 
head 3.043207 -1.725603 -1.553039 
rclavicle 0.000000 0.000000 
rhumerus -41.942043 -22.468047 -75.261163 
rradius 34.194193 
rwrist 29.049466 
rhand -19.190143 -18.756467 
rfingers 0.000000 
rthumb 7.121591 -48.616707 
lclavicle 0.000000 0.000000 
lhumerus -41.318376 40.228430 66.665165 
lradius 24.497535 
lwrist -61.465309 
lhand -22.377521 0.466693 
lfingers 0.000000 
lthumb 4.044187 30.408036 
rfemur -30.456037 0.335315 22.996729 
rtibia 28.973195 
rfoot -9.436807 -4.559960 
rtoes -28.162744 
lfemur -8.001295 6.862243 -16.302086 
ltibia 50.138531 
lfoot 5.847978 -5.010670 
ltoes -41.840078 
31
root -8.228197 17.512199 -20.905578 6.767083 11.161640 -0.323378
lowerback -13.610754 -1.497761 -2.538280 
upperback 1.266484 -1.639164 0.451961 
thorax 9.110051 -0.938920 1.570223 
lowerneck -7.439827 -2.363831 3.601896 
upperneck 5.252618 -3.367887 -2.417067 
head 2.887423 -1.688804 -1.576803 
rclavicle 0.000000 0.000000 
rhumerus -41.619022 -22.112321 -75.617097 
rradius 34.214079 
rwrist 28.787231 
rhand -19.291429 -18.848548 
rfingers 0.000000 
rthumb 7.023862 -48.711951 
lclavicle 0.000000 0.000000 
lhumerus -40.916346 39.919954 66.983664 
lradius 24.496266 
lwrist -61.707199 
lhand -22.579281 0.375253 
lfingers 0.000000 
lthumb 3.849358 30.320227 
rfemur -29.968887 0.020458 23.406754 
rtibia 28.985245 
rfoot -9.824178 -4.168029 
rtoes -28.822104 
lfemur -9.620077 7.583288 -15.859588 
ltibia 53.113461 
lfoot 6.358005 -4.389247 
ltoes -41.263122 
32
root -8.241057 17.516376 -20.834180 6.655179 11.285108 -0.680172
lowerback -13.456514 -1.444165 -2.108364 
upperback 1.291714 -1.654173 0.601416 
thorax 9.040856 -0.928109 1.487132 
lowerneck -7.317429 -2.382632 3.335313 
upperneck 5.175062 -3.369048 -2.315952 
head 2.842446 -1.691332 -1.491902 
rclavicle 0.000000 0.000000 
rhumerus -41.319288 -21.829490 -75.762363 
rradius 34.170508 
rwrist 28.929641 
rhand -19.237237 -18.755665 
rfingers 0.000000 
rthumb 7.076181 -48.617414 
lclavicle 0.000000 0.000000 
lhumerus -40.629976 39.670679 67.345794 
lradius 24.579464 
lwrist -61.942352 
lhand -22.568082 0.256283 
lfingers 0.000000 
lthumb 3.860211 30.201078 
rfemur -29.645676 -0.232239 23.957636 
rtibia 29.041956 
rfoot -10.245867 -3.894874 
rtoes -29.214212 
lfemur -11.428640 8.291268 -15.280892 
ltibia 56.017238 
lfoot 6.446993 -3.773958 
ltoes -41.670230 
33
root -8.250389 17.519933 -20.759607 6.469890 11.378195 -0.680588
lowerback -13.281744 -1.356364 -1.952570 
upperback 1.417864 -1.559434 0.579530 
thorax 9.068293 -0.873678 1.397838 
lowerneck -7.289378 -2.476414 3.288011 
upperneck 5.172985 -3.491110 -2.281986 
head 2.833511 -1.751682 -1.476898 
rclavicle 0.000000 0.000000 
rhumerus -40.918491 -21.436436 -76.114773 
rradius 34.241644 
rwrist 28.456546 
rhand -19.401008 -18.916737 
rfingers 0.000000 
rthumb 6.918032 -48.783730 
lclavicle 0.000000 0.000000 
lhumerus -40.118429 39.445765 67.709292 
lradius 24.497347 
lwrist -62.049315 
lhand -22.606199 0.243381 
lfingers 0.000000 
lthumb 3.823382 30.188813 
rfemur -29.193825 -0.561767 24.104284 
rtibia 29.174421 
rfoot -10.696561 -3.578468 
rtoes -29.372601 
lfemur -12.991928 8.863801 -15.160971 
ltibia 58.820420 
lfoot 5.803456 -3.152908 
ltoes -41.536938 
34
root -8.265281 17.519754 -20.700670 6.314771 11.644631 -0.854517
lowerback -12.959968 -1.336558 -1.733175 
upperback 1.453022 -1.579268 0.659845 
thorax 8.918196 -0.873290 1.361303 
lowerneck -7.152480 -2.545509 3.225817 
upperneck 5.111825 -3.574331 -2.271069 
head 2.785201 -1.793970 -1.461253 
rclavicle 0.000000 0.000000 
rhumerus -40.610825 -21.634817 -76.073846 
rradius 34.096389 
rwrist 28.711660 
rhand -19.424452 -18.675652 
rfingers 0.000000 
rthumb 6.895412 -48.543347 
lclavicle 0.000000 0.000000 
lhumerus -39.835091 39.310286 67.974349 
lradius 24.508167 
lwrist -62.134622 
lhand -22.453209 0.211472 
lfingers 0.000000 
lthumb 3.971124 30.154222 
rfemur -28.874488 -0.778637 24.411926 
rtibia 29.301232 
rfoot -11.099761 -3.512080 
rtoes -29.576237 
lfemur -14.851357 9.403584 -14.826758 
ltibia 61.695125 
lfoot 4.311043 -2.682119 
ltoes -41.599576 
35
root -8.278730 17.523691 -20.638384 6.183539 11.844088 -0.962189
lowerback -12.718929 -1.259258 -1.559972 
upperback 1.489053 -1.511942 0.727823 
thorax 8.812971 -0.833420 1.353888 
lowerneck -6.922846 -2.645251 3.055186 
upperneck 4.997361 -3.691623 -2.168439 
head 2.703535 -1.852145 -1.394575 
rclavicle 0.000000 0.000000 
rhumerus -40.382474 -21.632966 -76.030425 
rradius 34.068441 
rwrist 29.084106 
rhand -19.468485 -18.626254 
rfingers 0.000000 
rthumb 6.852925 -48.495287 
lclavicle 0.000000 0.000000 
lhumerus -39.589865 39.074872 68.297197 
lradius 24.629201 
lwrist -62.286811 
lhand -22.395382 0.110659 
lfingers 0.000000 
lthumb 4.026971 30.052342 
rfemur -28.521170 -0.854349 24.595064 
rtibia 29.366112 
rfoot -11.470947 -3.496979 
rtoes -29.619868 
lfemur -16.733989 9.977415 -14.609410 
ltibia 64.534315 
lfoot 2.538167 -2.482828 
ltoes -40.682961 
36
root -8.295368 17.528657 -20.581206 6.056175 12.137919 -1.033208
lowerback -12.447616 -1.211385 -1.444181 
upperback 1.552515 -1.471354 0.769120 
thorax 8.722156 -0.808578 1.344798 
lowerneck -6.760988 -2.770569 2.967361 
upperneck 4.894328 -3.849629 -2.124619 
head 2.635758 -1.931091 -1.365095 
rclavicle 0.000000 0.000000 
rhumerus -40.044558 -21.386683 -76.264068 
rradius 34.158294 
rwrist 28.773712 
rhand -19.701204 -18.802075 
rfingers 0.000000 
rthumb 6.628266 -48.678276 
lclavicle 0.000000 0.000000 
lhumerus -39.247720 39.066605 68.495101 
lradius 24.529184 
lwrist -62.387878 
lhand -22.138485 0.260858 
lfingers 0.000000 
lthumb 4.275032 30.197684 
rfemur -28.148268 -0.919425 24.734448 
rtibia 29.355828 
rfoot -11.792535 -3.549202 
rtoes -29.521380 
lfemur -18.733852 10.381330 -14.450116 
ltibia 67.280288 
lfoot 0.787970 -2.473910 
ltoes -39.338079 
37
root -8.307428 17.536444 -20.524124 5.964443 12.356922 -1.093051
lowerback -12.230018 -1.137342 -1.290773 
upperback 1.592942 -1.401828 0.816919 
thorax 8.635331 -0.768409 1.326071 
lowerneck -6.623382 -2.897159 2.809731 
upperneck 4.860230 -4.003771 -2.079688 
head 2.597372 -2.009216 -1.324755 
rclavicle 0.000000 0.000000 
rhumerus -39.771734 -20.868544 -76.484040 
rradius 34.333997 
rwrist 28.313462 
rhand -19.604240 -18.856257 
rfingers 0.000000 
rthumb 6.721847 -48.729594 
lclavicle 0.000000 0.000000 
lhumerus -38.973675 39.001979 68.774445 
lradius 24.553460 
lwrist -62.227320 
lhand -22.138783 0.290206 
lfingers 0.000000 
lthumb 4.274753 30.227029 
rfemur -27.799922 -0.945367 24.843932 
rtibia 29.332632 
rfoot -12.064613 -3.582455 
rtoes -29.479368 
lfemur -20.801178 10.864888 -14.373801 
ltibia 69.851079 
lfoot -0.644243 -2.568295 
ltoes -38.846504 
38
root -8.321596 17.541518 -20.471500 5.838961 12.677680 -1.038099
lowerback -11.928542 -1.082628 -1.267525 
upperback 1.674090 -1.331013 0.792387 
thorax 8.545861 -0.731520 1.304549 
lowerneck -6.579637 -3.014612 2.882205 
upperneck 4.856798 -4.162254 -2.148768 
head 2.581059 -2.089005 -1.364613 
rclavicle 0.000000 0.000000 
rhumerus -39.464039 -21.042554 -76.538449 
rradius 34.362429 
rwrist 28.523118 
rhand -19.791928 -19.023061 
rfingers 0.000000 
rthumb 6.540668 -48.902036 
lclavicle 0.000000 0.000000 
lhumerus -38.669765 38.850041 69.003435 
lradius 24.680846 
lwrist -62.389802 
lhand -21.666619 0.502973 
lfingers 0.000000 
lthumb 4.730691 30.430187 
rfemur -27.412601 -0.974753 24.819651 
rtibia 29.313100 
rfoot -12.298817 -3.738373 
rtoes -29.130923 
lfemur -22.857662 11.119104 -14.464000 
ltibia 72.255472 
lfoot -1.905856 -2.778043 
ltoes -39.068946 
39
root -8.340501 17.549498 -20.425946 5.663818 13.040288 -1.010372
lowerback -11.516357 -1.079721 -1.307053 
upperback 1.769599 -1.326857 0.830613 
thorax 8.413604 -0.731760 1.373718 
lowerneck -6.568916 -3.158971 2.696759 
upperneck 4.862550 -4.346324 -2.011953 
head 2.581723 -2.179424 -1.294904 
rclavicle 0.000000 0.000000 
rhumerus -39.074500 -21.080789 -76.580511 
rradius 34.419242 
rwrist 28.433431 
rhand -19.749118 -18.956260 
rfingers 0.000000 
rthumb 6.582019 -48.834030 
lclavicle 0.000000 0.000000 
lhumerus -38.378457 38.998003 69.117616 
lradius 24.592492 
lwrist -62.390744 
lhand -21.635825 0.330931 
lfingers 0.000000 
lthumb 4.760395 30.257499 
rfemur -27.001590 -0.954647 24.842933 
rtibia 29.330526 
rfoot -12.615339 -4.056299 
rtoes -28.221164 
lfemur -24.887958 11.403950 -14.454927 
ltibia 74.590320 
lfoot -2.940724 -2.989679 
ltoes -38.436812 
